<svg width="40" height="40" viewBox="0 0 40 40" fill="none" xmlns="http://www.w3.org/2000/svg">
<path d="M9.39 34.8V36H4.005V34.8H6.135V28.95C6.045 29.07 5.905 29.2 5.715 29.34C5.525 29.47 5.31 29.595 5.07 29.715C4.83 29.835 4.59 29.935 4.35 30.015C4.11 30.085 3.89 30.12 3.69 30.12V28.86C3.91 28.86 4.15 28.8 4.41 28.68C4.68 28.55 4.94 28.4 5.19 28.23C5.44 28.06 5.65 27.9 5.82 27.75C6 27.6 6.105 27.495 6.135 27.435H7.485V34.8H9.39ZM13.6829 38.235C12.9229 38.235 12.2379 38.055 11.6279 37.695C11.0179 37.335 10.5579 36.855 10.2479 36.255L11.0729 35.535C11.3529 35.995 11.7229 36.365 12.1829 36.645C12.6529 36.925 13.1579 37.065 13.6979 37.065C14.1579 37.065 14.5679 36.965 14.9279 36.765C15.2879 36.565 15.5729 36.29 15.7829 35.94C15.9929 35.58 16.0979 35.17 16.0979 34.71C16.0979 34.26 15.9929 33.865 15.7829 33.525C15.5829 33.185 15.3079 32.92 14.9579 32.73C14.6179 32.54 14.2329 32.445 13.8029 32.445C13.3729 32.445 12.9679 32.54 12.5879 32.73C12.2179 32.92 11.9129 33.19 11.6729 33.54H10.4879L11.6879 27.435H16.8629V28.65H12.6629L12.0179 32.04C12.2379 31.81 12.5129 31.63 12.8429 31.5C13.1829 31.36 13.5579 31.29 13.9679 31.29C14.6279 31.29 15.2179 31.435 15.7379 31.725C16.2679 32.015 16.6829 32.415 16.9829 32.925C17.2929 33.435 17.4479 34.025 17.4479 34.695C17.4479 35.395 17.2779 36.01 16.9379 36.54C16.6079 37.08 16.1579 37.495 15.5879 37.785C15.0179 38.085 14.3829 38.235 13.6829 38.235ZM28.8457 28.17H30.1207L26.7907 36H25.6357L24.1207 32.31L22.6207 36H21.4657L18.1357 28.17H19.3957L22.0957 34.695L23.3557 31.485L22.0357 28.185H23.1907L24.1207 30.675L25.0507 28.185H26.2057L24.9007 31.485L26.1607 34.695L28.8457 28.17Z" fill="black"/>
<path d="M38.3333 6.66675V16.6667H28.3333" stroke="#6C4320" stroke-width="2" stroke-linecap="round" stroke-linejoin="round"/>
<path d="M5.84998 15C6.69526 12.6113 8.13187 10.4756 10.0258 8.79233C11.9196 7.10902 14.2091 5.93291 16.6805 5.37373C19.1518 4.81455 21.7246 4.89053 24.1586 5.59459C26.5927 6.29864 28.8087 7.60782 30.6 9.39996L38.3333 16.6666" stroke="#6C4320" stroke-width="2" stroke-linecap="round" stroke-linejoin="round"/>
</svg>
