<svg width="40" height="40" viewBox="0 0 40 40" fill="none" xmlns="http://www.w3.org/2000/svg">
<path d="M18.39 34.8V36H13.005V34.8H15.135V28.95C15.045 29.07 14.905 29.2 14.715 29.34C14.525 29.47 14.31 29.595 14.07 29.715C13.83 29.835 13.59 29.935 13.35 30.015C13.11 30.085 12.89 30.12 12.69 30.12V28.86C12.91 28.86 13.15 28.8 13.41 28.68C13.68 28.55 13.94 28.4 14.19 28.23C14.44 28.06 14.65 27.9 14.82 27.75C15 27.6 15.105 27.495 15.135 27.435H16.485V34.8H18.39ZM22.6829 38.235C21.9229 38.235 21.2379 38.055 20.6279 37.695C20.0179 37.335 19.5579 36.855 19.2479 36.255L20.0729 35.535C20.3529 35.995 20.7229 36.365 21.1829 36.645C21.6529 36.925 22.1579 37.065 22.6979 37.065C23.1579 37.065 23.5679 36.965 23.9279 36.765C24.2879 36.565 24.5729 36.29 24.7829 35.94C24.9929 35.58 25.0979 35.17 25.0979 34.71C25.0979 34.26 24.9929 33.865 24.7829 33.525C24.5829 33.185 24.3079 32.92 23.9579 32.73C23.6179 32.54 23.2329 32.445 22.8029 32.445C22.3729 32.445 21.9679 32.54 21.5879 32.73C21.2179 32.92 20.9129 33.19 20.6729 33.54H19.4879L20.6879 27.435H25.8629V28.65H21.6629L21.0179 32.04C21.2379 31.81 21.5129 31.63 21.8429 31.5C22.1829 31.36 22.5579 31.29 22.9679 31.29C23.6279 31.29 24.2179 31.435 24.7379 31.725C25.2679 32.015 25.6829 32.415 25.9829 32.925C26.2929 33.435 26.4479 34.025 26.4479 34.695C26.4479 35.395 26.2779 36.01 25.9379 36.54C25.6079 37.08 25.1579 37.495 24.5879 37.785C24.0179 38.085 23.3829 38.235 22.6829 38.235ZM37.8457 28.17H39.1207L35.7907 36H34.6357L33.1207 32.31L31.6207 36H30.4657L27.1357 28.17H28.3957L31.0957 34.695L32.3557 31.485L31.0357 28.185H32.1907L33.1207 30.675L34.0507 28.185H35.2057L33.9007 31.485L35.1607 34.695L37.8457 28.17Z" fill="black"/>
<path d="M1.66666 6.66675V16.6667H11.6667" stroke="#6C4320" stroke-width="2" stroke-linecap="round" stroke-linejoin="round"/>
<path d="M34.15 15C33.3047 12.6113 31.8681 10.4756 29.9742 8.79233C28.0803 7.10902 25.7909 5.93291 23.3195 5.37373C20.8481 4.81455 18.2754 4.89053 15.8413 5.59459C13.4073 6.29864 11.1912 7.60782 9.39999 9.39996L1.66666 16.6666" stroke="#6C4320" stroke-width="2" stroke-linecap="round" stroke-linejoin="round"/>
</svg>
